<svg xmlns="http://www.w3.org/2000/svg" viewBox="0 0 231 231"><path d="M33.83,33.83a115.5,115.5,0,1,1,0,163.34,115.49,115.49,0,0,1,0-163.34Z" style="fill:#DC75FF;"/><path d="m115.5 51.75a63.75 63.75 0 0 0-10.5 126.63v14.09a115.5 115.5 0 0 0-53.729 19.027 115.5 115.5 0 0 0 128.46 0 115.5 115.5 0 0 0-53.729-19.029v-14.084a63.75 63.75 0 0 0 53.25-62.881 63.75 63.75 0 0 0-63.65-63.75 63.75 63.75 0 0 0-0.09961 0z" style="fill:#ffce73;"/><path d="m88.18 194.11c-4.2079 1.021-8.3545 2.2792-12.42 3.7695v26.072a115.5 115.5 0 0 0 79.48 0v-26.072c-4.0858-1.4904-8.2529-2.7486-12.48-3.7695v8.7051c0 9.3888-7.6112 17-17 17h-20.58c-9.3888 0-17-7.6112-17-17v-8.7051z" style="fill:#ff14e4;"/><path d="m32.902 67.662c-0.36295 1.7227-6.2342 30.695 5.6133 52.596 4.5843 8.4743 9.0081 13.239 12.75 15.893a67.7 67.7 0 0 1-3.4688-21.35 67.7 67.7 0 0 1 2.332-17.658c-4.4914-2.4646-10.868-6.9012-13.834-13.52-4.1626-9.285-3.6155-14.673-3.3926-15.961zm165.19 0c0.22292 1.2882 0.77005 6.6759-3.3926 15.961-2.9664 6.6183-9.3426 11.055-13.834 13.52a67.7 67.7 0 0 1 2.332 17.658 67.7 67.7 0 0 1-3.4688 21.35c3.7419-2.6532 8.1657-7.4183 12.75-15.893 11.847-21.9 5.9762-50.873 5.6133-52.596z" style="fill:#acfffd;"/><path d="m115.73 13.191c-7.3787-0.13351-13.509 5.7888-13.631 13.168-0.10128 5.8827 3.4508 10.518 8.0566 12.52 1.061 0.46115 2.1869 0.78009 3.3418 0.95703v8.4291c0.66778-0.02035 1.3358-0.03077 2.0039-0.03125 0.66547-9e-5 1.3309 0.0097 1.9961 0.0293v-8.4115c2.6002-0.38406 5.1586-1.5484 7.3086-3.625 4.2322-4.0878 4.9991-9.8755 3.1582-14.549-1.8407-4.6726-6.3502-8.3834-12.232-8.4863z" style="fill:#acfffd;"/><path d="m161.73 86.016h-92.51c-3.37 0-6.0001 2.3998-6.0001 5.2999v28.45c0 3.0002 2.74 5.3001 6.0001 5.3001h32.36c7.0901 0 7.44-19.43 13.82-19.43s6.8801 19.44 13.83 19.44h32.36c3.37 0 5.9999-2.4 5.9999-5.3001v-28.46c0.14043-2.9001-2.6-5.2999-5.9-5.2999z" style="fill:#581b1b;"/><path d="m161.73 86.016h-92.51c-3.37 0-6.0001 2.3998-6.0001 5.2999v28.45l104.55-28.45c0-2.9001-2.74-5.2999-5.9999-5.2999z" style="fill:#FF8B8B;"/><path d="m161.73 86.016h-92.51c-3.37 0-6.0001 2.3998-6.0001 5.2999v28.45c0 3.0002 2.74 5.3001 6.0001 5.3001h32.36c7.0901 0 7.44-19.43 13.82-19.43s6.8801 19.44 13.83 19.44h32.36c3.37 0 5.9999-2.4 5.9999-5.3001v-28.46c0.14043-2.9001-2.6-5.2999-5.9-5.2999z" style="fill:none;stroke-linecap:round;stroke-linejoin:round;stroke-width:4.0026px;stroke:#000;"/><path d="m123.07 154.05a10.61 10.61 0 0 1-15 0.14l-0.14-0.14" style="fill:none;stroke-linecap:round;stroke-linejoin:round;stroke-width:6.3px;stroke:#000;"/><path d="m120.1 142.22 0.19-0.11c3-1.87 5.45-2.4 7.3-1.46 2.15 1.1 3.12 3.84 4.84 5.5a5.18 5.18 0 0 0 6.68 0.73m-28.21-4.66-0.19-0.11c-3-1.87-5.45-2.4-7.3-1.46-2.15 1.1-3.12 3.84-4.84 5.5a5.18 5.18 0 0 1-6.68 0.73" style="fill:none;stroke-linecap:round;stroke-linejoin:round;stroke-width:5.9998px;stroke:#4d4d4d;"/></svg>