<svg xmlns="http://www.w3.org/2000/svg" viewBox="0 0 231 231"><path d="M33.83,33.83a115.5,115.5,0,1,1,0,163.34,115.49,115.49,0,0,1,0-163.34Z" style="fill:#104c8c;"/><path d="m115.5 51.75a63.75 63.75 0 0 0-10.5 126.63v14.09a115.5 115.5 0 0 0-53.729 19.027 115.5 115.5 0 0 0 128.46 0 115.5 115.5 0 0 0-53.729-19.029v-14.084a63.75 63.75 0 0 0 53.25-62.881 63.75 63.75 0 0 0-63.65-63.75 63.75 63.75 0 0 0-0.09961 0z" style="fill:#ffce94;"/><path d="m141.75 195a114.79 114.79 0 0 1 38 16.5 115.53 115.53 0 0 1-128.46 0 114.79 114.79 0 0 1 38-16.5 115.77 115.77 0 0 1 15.71-2.53v-14.09a63.8 63.8 0 0 0 21 0v14.09a116.6 116.6 0 0 1 15.75 2.53z" style="fill:#000;"/><path d="m60.984 205.66 6.2675 2.2051 3.4074-6.819 2.8018-1.1353-3.9911 7.9907 27.222-3.0857 3.2541-11.739 2.1451-0.2692-3.2833 11.819 20.393-1.6011-14.191-15.945v-2.4379l17.606-5.7274 3.3855-0.473v1.47l-19.167 6.2295 14.731 16.542 19.839-7.7432 3.3636 0.8223-21.371 8.34 20.532 13.842 2.6777-21.687 1.9481 0.5604-2.7726 22.378 0.0584 0.0364 8.5075 4.9923-2.4807 0.85145-6.4718-3.7916-1.2987 6.0622-2.1524 0.53125 1.3425-6.2804-17.037 8.8348-5.0271 0.35661 21.59-11.193-20.962-14.133-7.5006 25.457-2.0721-0.0364 7.6392-25.915-21.05 1.652 9.0109 24.052-1.4155-0.0946-0.49615-0.0437-0.073-7e-3 -0.2043-0.0145-8.3688-22.342-10.127 19.242-1.9846-0.52399 10.514-19.962-26.04 2.9547 13.425 16.418-3.4438-1.0625-12.083-14.781-8.1645 5.9675-1.9043-1.077 8.128-5.9385-6.9898-2.4598 2.3348-1.2881zm92.509-7.2556 14.228 20.093-1.8095 0.89514-15.614-22.043z" style="fill:#fff;"/><path d="m52.107 57.293c-1.3411 14.839-3.8707 52.771 1.3145 72.715-0.67572-43.829 12.389-70.177 62.078-70.187 49.689 0.010061 62.754 26.359 62.078 70.187 5.1852-19.944 2.6556-57.876 1.3145-72.715h-63.393-63.393z" style="fill:#53ffff;"/><path d="m52.339 30.629c-1.3825 24.448-2.1216 45.905-1.4497 66.517 9.4643-48.304 112.77-54.916 129.22 0 0.67191-20.612-0.3798-47.256-1.4928-66.517-32.241 14.296-91.346 18.861-126.28 0z" style="fill:#53ffff;"/><path d="m115.5 24.92c-22.25 0-44.5 4.2296-56.72 12.69-3.32 2.3-5.0602 6.4392-5.5903 10.269-0.45275 3.23-0.84043 6.7561-1.1785 10.461h126.98c-0.33704-3.7047-0.72492-7.2306-1.1775-10.461-0.53009-3.8301-2.2697-7.9992-5.5897-10.269-12.22-8.4601-34.47-12.69-56.72-12.69z" style="fill:none;"/><path d="m76.521 39.139c21.233 3.3965 33.116-13.392 37.59-31.72 4.3614 17.158 14.175 34.968 36.577 31.584-33.921 20.594-57.646 11.594-74.167 0.1345z" style="fill:none;"/><path d="m161.73 86.016h-92.51c-3.37 0-6.0001 2.3998-6.0001 5.2999v28.45c0 3.0002 2.74 5.3001 6.0001 5.3001h32.36c7.0901 0 7.44-19.43 13.82-19.43s6.8801 19.44 13.83 19.44h32.36c3.37 0 5.9999-2.4 5.9999-5.3001v-28.46c0.14043-2.9001-2.6-5.2999-5.9-5.2999z" style="fill:#1f2644;"/><path d="m161.73 86.016h-92.51c-3.37 0-6.0001 2.3998-6.0001 5.2999v28.45l104.55-28.45c0-2.9001-2.74-5.2999-5.9999-5.2999z" style="fill:#9b97ce;"/><path d="m161.73 86.016h-92.51c-3.37 0-6.0001 2.3998-6.0001 5.2999v28.45c0 3.0002 2.74 5.3001 6.0001 5.3001h32.36c7.0901 0 7.44-19.43 13.82-19.43s6.8801 19.44 13.83 19.44h32.36c3.37 0 5.9999-2.4 5.9999-5.3001v-28.46c0.14043-2.9001-2.6-5.2999-5.9-5.2999z" style="fill:none;stroke-linecap:round;stroke-linejoin:round;stroke-width:4.0026px;stroke:#301e19;"/><path d="m115.5 153.93a14 14 0 0 1-10.5-4.69 3.4209 3.4209 0 0 1 5-4.67l0.08 0.08 0.08 0.09a7.35 7.35 0 0 0 10.39 0.37l0.37-0.37a3.4206 3.4206 0 1 1 5.23 4.41l-0.08 0.09a14 14 0 0 1-10.53 4.69z" /><path d="m115.27 127.32c-7.6627-0.03-15.251 1.4419-20.646 5.1465-7.62 5.33-9.9053 11.512-14.127 18.109-3.4379 5.2447-9.326 10.024-13.467 6.334 25.425 29.755 71.409 29.786 96.875 0.0664-6.8104 3.9305-11.545-2.47-13.508-6.4004-10.697-17.605-14.115-22.656-35.127-23.256zm-0.26758 8.3984c7.457 0.0802 14.986 1.2966 17.146 5.9522 2.5765 11.319-7.5878 17.454-16.681 17.515-6.09-0.05-12.2-2.3802-15.26-7.7402-6.36-11.16 3.6349-15.607 14.795-15.727z" style="fill:#000;"/></svg>