<svg xmlns="http://www.w3.org/2000/svg" viewBox="0 0 231 231"><path d="M33.83,33.83a115.5,115.5,0,1,1,0,163.34,115.49,115.49,0,0,1,0-163.34Z" style="fill:#0DC15C;"/><path d="m115.5 51.75a63.75 63.75 0 0 0-10.5 126.63v14.09a115.5 115.5 0 0 0-53.729 19.027 115.5 115.5 0 0 0 128.46 0 115.5 115.5 0 0 0-53.729-19.029v-14.084a63.75 63.75 0 0 0 53.25-62.881 63.75 63.75 0 0 0-63.65-63.75 63.75 63.75 0 0 0-0.09961 0z" style="fill:#a76c44;"/><path d="m116 203.13c-0.12 0-0.25 0.12-0.49 0.12s-0.25-0.12-0.49-0.12zm-27.29-8c0.87-0.25 1.72-0.47 2.56-0.69a32.37 32.37 0 0 0 0.3 8.57 21.5 21.5 0 0 0 7 6.88c6.41-6 16.8-6.64 16.8-6.64s10.5 0.58 17 6.69a21.61 21.61 0 0 0 6.93-6.66 32.34 32.34 0 0 0 0.35-8.84l2.13 0.56a114.79 114.79 0 0 1 38 16.5 115.53 115.53 0 0 1-128.46 0 114.64 114.64 0 0 1 37.38-16.37z" style="fill:#FFBA32;"/><path d="m126.15 206-3.92 7.83h-13.46l-3.92-7.83a36.59 36.59 0 0 1 10.65-2.7 35.66 35.66 0 0 1 10.65 2.7z" style="fill:#484848;"/><path d="m124.54 230.65-2.18-16.74h-13.47l-2.19 16.76c2.9 0.22 5.84 0.33 8.8 0.33s6.06-0.12 9-0.35z" style="fill:#4e4e4e;"/><path d="m134.84 186s0.86 9.8-19.34 17.26c0 0 15.79 0.86 20.57 11.76 0.12 0.49 9.3-23.26-1.23-29z" style="fill:#fff;"/><path d="m96.16 186c-10.41 5.76-1.35 29.39-1.1 29 4.65-10.78 20.56-11.76 20.56-11.76-20.32-7.45-19.46-17.24-19.46-17.24z" style="fill:#fff;"/><path d="m43.891 77.836c-5.1124 28.237 2.1347 61.004 24.792 81.332-6.2362-12.503-9.5362-33.948-9.4887-45.458-0.50203-37.473 41.439-46.335 56.149-17.614 18.8-31.2 52.825-16.872 54.062 13.714 0.56018 13.844-0.43568 25.598-7.0962 48.966 18.372-12.47 28.012-53.959 23.545-80.941-47.486-2.2552-94.831-2.5724-141.96 0z" style="fill:#8eff45;"/><path d="m111.26 12.782c-18.508 0.0791-32.594 3.6163-32.594 3.6163 24.513 5.6002 32.807 10.504 31.743 19.835-0.87227 9.702-11.092 10.875-20.811 11.554-5.2548 0.36414-10.949 0.71523-16.391 1.7525-11.862 2.2818-19.946 4.3736-24.447 11.956-1.7012 2.8662-3.7945 10.428-4.8689 16.34h141.96c-5.7242-38.563-32.557-65.073-74.595-65.054z" style="fill:#8eff45;"/><path d="m73.292 44.77c-11.788 2.2816-18.923 5.5444-23.394 13.126-2.8484 6.7586-4.8454 13.238-6.0072 19.939h141.96c-1.9772-14.576-6.8677-28.248-19.277-32.098-28.834-6.3308-63.774-6.3553-93.285-0.96761z" style="fill:none;"/><path d="m165.95 35.642c-11.178 21.829-91.89 19.36-103.98 2.3011-9.703 12.267-15.605 25.883-18.079 39.892h141.96c-3.0096-17.158-9.7424-32.688-19.902-42.193z" style="fill:none;"/><path d="m97.56 107.84a10.63 10.63 0 0 1-15 0.13l-0.13-0.13" style="fill:none;stroke-linecap:round;stroke-linejoin:round;stroke-width:6.3px;stroke:#000;"/><path d="m148.59 107.84a10.63 10.63 0 0 1-15 0.13l-0.13-0.13" style="fill:none;stroke-linecap:round;stroke-linejoin:round;stroke-width:6.3px;stroke:#000;"/><path d="m115.5 153.93a14 14 0 0 1-10.5-4.69 3.4209 3.4209 0 0 1 5-4.67l0.08 0.08 0.08 0.09a7.35 7.35 0 0 0 10.39 0.37l0.37-0.37a3.4206 3.4206 0 1 1 5.23 4.41l-0.08 0.09a14 14 0 0 1-10.53 4.69z" /><path d="m115.27 127.32c-7.6627-0.03-15.251 1.4419-20.646 5.1465-7.62 5.33-9.9053 11.512-14.127 18.109-3.4379 5.2447-9.326 10.024-13.467 6.334 25.425 29.755 71.409 29.786 96.875 0.0664-6.8104 3.9305-11.545-2.47-13.508-6.4004-10.697-17.605-14.115-22.656-35.127-23.256zm-0.26758 8.3984c7.457 0.0802 14.986 1.2966 17.146 5.9522 2.5765 11.319-7.5878 17.454-16.681 17.515-6.09-0.05-12.2-2.3802-15.26-7.7402-6.36-11.16 3.6349-15.607 14.795-15.727z" style="fill:#4a3737;"/></svg>