<svg xmlns="http://www.w3.org/2000/svg" viewBox="0 0 231 231"><path d="M33.83,33.83a115.5,115.5,0,1,1,0,163.34,115.49,115.49,0,0,1,0-163.34Z" style="fill:#ff2f2b;"/><path d="m115.5 51.75a63.75 63.75 0 0 0-10.5 126.63v14.09a115.5 115.5 0 0 0-53.729 19.027 115.5 115.5 0 0 0 128.46 0 115.5 115.5 0 0 0-53.729-19.029v-14.084a63.75 63.75 0 0 0 53.25-62.881 63.75 63.75 0 0 0-63.65-63.75 63.75 63.75 0 0 0-0.09961 0z" style="fill:#f8d9ad;"/><path d="m141.75 195c13.563 3.1499 26.439 8.7409 38 16.5-38.873 26.001-89.587 26.001-128.46 0 11.561-7.7591 24.437-13.35 38-16.5 8.4869 8.8011 26.21 25.619 26.21 25.619s17.603-16.972 26.25-25.619z" style="fill:#000;"/><path d="m109 230.81 1.6836-14.33h9.6328l1.6836 14.33c-2.16 0.12-4.33 0.19-6.51 0.19s-4.35-0.07-6.51-0.19z" style="fill:#ff0000;"/><path d="m124.17 210.6h-17.349v5.53a3.8828 3.29 0 0 0 3.8828 3.29h9.583a3.8828 3.29 0 0 0 3.8828-3.29z" style="fill:#ff0000;"/><path d="m140.57 190.36-25.066 20.245c5.9686 3.2455 11.597 7.0814 16.8 11.45 1.5989 1.3338 3.9762 1.1189 5.31-0.48 0.21005-0.25749 0.38802-0.53956 0.52999-0.84l10.826-23.805-4-6c-0.90256-1.351-2.7298-1.7137-4.08-0.81-0.11612 0.0786-0.22641 0.16549-0.33 0.26z" style="fill:#7d7d7d;"/><path d="m90.434 190.36 25.066 20.245c-5.9686 3.2455-11.597 7.0814-16.8 11.45-1.5989 1.3338-3.9762 1.1189-5.31-0.48-0.21005-0.25749-0.38802-0.53956-0.52999-0.84l-10.826-23.805 4-6c0.90256-1.351 2.7298-1.7137 4.08-0.81 0.11612 0.0786 0.22641 0.16549 0.33 0.26z" style="fill:#7d7d7d;"/><path d="m41.835 75.131c-2.8674 12.582 1.2304 27.241 6.0238 39.031 0.25861 0.63658 0.51208 1.3075 0.79989 1.9683 0.71726 1.658 2.1184 3.9751 3.0038 3.9266 0.56895-0.0312 0.71637-1.5512 1.0228-3.1562 2.1988-19.097 8.8981-27.915 15.636-38.107 2.8783-4.0645 3.8616-7.2293 1.0644-9.9325-6.3236-3.5596-14.924-2.8574-21.367-0.67406-3.2312 1.4765-5.2427 3.4773-6.1842 6.9439zm125.65-8.5679c7.65-0.70616 19.714-0.1307 21.694 8.5679 1.455 6.4083 0.26915 17.747-1.0542 24.579-1.1961 5.3203-3.8066 14.231-7.8782 19.75-0.5565 0.44544-0.96888 0.13656-1.4159-1.1606-0.90692-3.0353-1.4298-7.8372-2.2556-10.727-3.4822-12.79-8.2195-21.875-14.429-29.94-5.5782-6.8415-4.2152-9.7207 5.3393-11.069z" style="fill:#ff9a00;"/><path d="m112.27 73.826c-18.585-7.5217-34.987-14.797-48.939 5.018-4.9752 7.083-3.7876 8.8056-4.9217 0.0749-1.637-12.476-4.7505-34.174 1.9259-45.194 7.6822-12.7 19.323-13.128 31.039-5.3818 10.796 7.7784 24.277 14.647 38.015 12.219 12.732-2.2576 15.835-7.7464 15.707-19.912-0.0215-2.6-0.0963-5.2106-0.2033-7.7999 13.631 3.9267 24.609 14.776 26.513 29.049 0.88804 6.6336 0.26749 12.722-1.9259 19.013-5.9702 17.108-30.119 20.896-45.74 16.841-3.9588-1.0378-7.6822-2.4181-11.47-3.9267z" style="fill:#ff9a00;"/><path d="m161.73 86.016h-92.51c-3.37 0-6.0001 2.3998-6.0001 5.2999v28.45c0 3.0002 2.74 5.3001 6.0001 5.3001h32.36c7.0901 0 7.44-19.43 13.82-19.43s6.8801 19.44 13.83 19.44h32.36c3.37 0 5.9999-2.4 5.9999-5.3001v-28.46c0.14043-2.9001-2.6-5.2999-5.9-5.2999z" style="fill:#1f2644;"/><path d="m161.73 86.016h-92.51c-3.37 0-6.0001 2.3998-6.0001 5.2999v28.45l104.55-28.45c0-2.9001-2.74-5.2999-5.9999-5.2999z" style="fill:#9b97ce;"/><path d="m161.73 86.016h-92.51c-3.37 0-6.0001 2.3998-6.0001 5.2999v28.45c0 3.0002 2.74 5.3001 6.0001 5.3001h32.36c7.0901 0 7.44-19.43 13.82-19.43s6.8801 19.44 13.83 19.44h32.36c3.37 0 5.9999-2.4 5.9999-5.3001v-28.46c0.14043-2.9001-2.6-5.2999-5.9-5.2999z" style="fill:none;stroke-linecap:round;stroke-linejoin:round;stroke-width:4.0026px;stroke:#301e19;"/><path d="m122.83 151.88a10.49 10.489 0 0 1-14.66 0" style="fill:none;stroke-linecap:round;stroke-linejoin:round;stroke-width:6.1996px;stroke:#000;"/></svg>